<svg xmlns="http://www.w3.org/2000/svg" viewBox="0 0 62.87 62.87"><defs><style>.cls-1{fill:none;stroke:#50d6a3;stroke-miterlimit:10;stroke-width:2px;}.cls-2{fill:#50d6a3;}</style></defs><g id="Layer_2" data-name="Layer 2"><g id="Menu"><circle class="cls-1" cx="31.44" cy="31.44" r="30.44"/><path class="cls-2" d="M43.28,32.25,32.65,42.88V18.55a1.21,1.21,0,0,0-1.21-1.21h0a1.21,1.21,0,0,0-1.21,1.21V43L19.59,32.35a1.14,1.14,0,0,0-1.62,0h0A1.14,1.14,0,0,0,18,34L31.39,47.39,44.9,33.87a1.14,1.14,0,0,0,0-1.62h0A1.14,1.14,0,0,0,43.28,32.25Z"/></g></g></svg>