<svg xmlns="http://www.w3.org/2000/svg" viewBox="0 0 98.28 49.97"><defs><style>.cls-1{fill:#50d6a3;}</style></defs><g id="Layer_2" data-name="Layer 2"><g id="Menu"><path class="cls-1" d="M34.45,22.28h6.68v9.87H34.45V44.46a9.87,9.87,0,0,1-9.87-9.87V20.43c-.59,2.77-1.26,6.16-1.94,10-1.28,7.13-3,7.69-4,7.28a1,1,0,0,1-.38-.19c-2.19-1.77-5.69-6.21-5.69-16.49,0-.92,0-1.77.08-2.6L9.87,29.73c-1.11,2.34-2.3.26-2.3.26h0c-1-1.29-2.29-3.87-2.29-8.88C5.28,15,7,12.5,8.12,11.57c.37-.31.84,0,.84.63v9C13,10.4,15.87,6.6,17.23,5.28a10,10,0,0,1,1.05-.92C19,3.81,20,4.43,20,5.45v13.7A142.32,142.32,0,0,1,25.1,4.4a1,1,0,0,1,.07-.15l0-.09h0A7.08,7.08,0,0,1,31.65,0H59.13V9.87H34.45ZM2.06,15.58C.92,15.58,0,18.12,0,21.26s.92,5.68,2.06,5.68,1.28-2.55,1.28-5.68S3.19,15.58,2.06,15.58Zm90.75,2.51c-.06-.44-.13-.87-.22-1.3s-.17-.76-.27-1.13-.2-.66-.32-1-.23-.55-.36-.82-.24-.47-.37-.7-.25-.38-.38-.57a3.91,3.91,0,0,0-.72-.85,1,1,0,0,0-.63-.23,1.27,1.27,0,0,0-.86.62,4.14,4.14,0,0,0-.51,1.48c-.09.38-.19.76-.28,1.13s-.23.94-.34,1.4-.25,1-.38,1.56l-.39,1.6c-.12.51-.25,1-.37,1.52l-.33,1.35c-.08.34-.17.69-.25,1s-.11.41-.16.62l0,.13c0-.82.09-1.68.09-2.6,0-10.28-3.51-14.72-5.7-16.49a1,1,0,0,0-.38-.19c-1-.4-2.72.15-4,7.28-.66,3.69-1.31,7-1.88,9.72V7a7,7,0,0,0-7-7H63.88V22.28H54.2V14.92H44.32V40.1h0A9.87,9.87,0,0,0,54.2,50V32.15h9.68V44.46a9.88,9.88,0,0,0,9.2-6.29v0a139.7,139.7,0,0,0,5.23-15V36.9c0,1,1,1.64,1.69,1.09a9.8,9.8,0,0,0,1-.91c1.36-1.32,4.19-5.12,8.27-15.9v9c0,.59.47.94.84.63C91.24,29.85,93,27.4,93,21.24c0-.56,0-1.12,0-1.67S92.87,18.58,92.81,18.09Zm3.41-2.67c-1.13,0-1.28,2.54-1.28,5.67s.15,5.68,1.28,5.68,2.06-2.54,2.06-5.68S97.36,15.42,96.22,15.42Z"/></g></g></svg>