<svg xmlns="http://www.w3.org/2000/svg" viewBox="0 0 277.37 115.43"><defs><style>.cls-1{fill:#50d6a3;}.cls-2{fill:#486768;}</style></defs><g id="Layer_2" data-name="Layer 2"><g id="Menu"><path class="cls-1" d="M116.57,10.75h26.89V0H113.52a7.68,7.68,0,0,0-7,4.54h0l0,.09a.87.87,0,0,1-.07.17,152.87,152.87,0,0,0-5.58,16.07V5.94c0-1.11-1-1.79-1.84-1.19a9.6,9.6,0,0,0-1.15,1c-1.48,1.44-4.56,5.57-9,17.31V13.29c0-.64-.51-1-.91-.69-1.18,1-3.09,3.69-3.09,10.4,0,5.44,1.36,8.26,2.49,9.67h0s1.3,2.26,2.51-.3l3-12.34c0,.9-.09,1.83-.09,2.83,0,11.2,3.82,16,6.2,18a1,1,0,0,0,.42.2c1.09.45,3-.16,4.36-7.92.75-4.14,1.48-7.83,2.11-10.85V37.67a10.75,10.75,0,0,0,10.75,10.75V35h7.28V24.26h-7.28Z"/><path class="cls-1" d="M81.3,17c-1.24,0-2.25,2.77-2.25,6.18s1,6.19,2.25,6.19,1.4-2.77,1.4-6.19S82.53,17,81.3,17Z"/><path class="cls-1" d="M180.13,19.7c-.06-.47-.13-.95-.23-1.41s-.18-.83-.3-1.24-.22-.71-.35-1.06-.25-.61-.39-.9a6.79,6.79,0,0,0-.41-.75,5.11,5.11,0,0,0-.41-.62,4.44,4.44,0,0,0-.78-.94,1,1,0,0,0-.69-.24,1.35,1.35,0,0,0-.93.67,4.66,4.66,0,0,0-.56,1.62l-.3,1.23-.37,1.52-.42,1.7L173.57,21c-.14.55-.27,1.11-.41,1.66s-.24,1-.35,1.46-.19.76-.28,1.13l-.17.69,0,.14c0-.9.09-1.83.09-2.83,0-11.2-3.82-16-6.2-18a1.18,1.18,0,0,0-.42-.21c-1.09-.44-3,.16-4.36,7.92-.72,4-1.44,7.62-2.06,10.59v-16A7.62,7.62,0,0,0,151.76,0h-3.13V24.26H138.08v-8H127.33V43.67h0a10.75,10.75,0,0,0,10.75,10.75V35h10.55V48.42a10.74,10.74,0,0,0,10-6.85v0a151.39,151.39,0,0,0,5.69-16.33V40.19c0,1.11,1,1.78,1.84,1.19a10.6,10.6,0,0,0,1.15-1c1.48-1.44,4.56-5.58,9-17.31v9.77c0,.64.51,1,.91.68,1.18-1,3.09-3.68,3.09-10.39,0-.61,0-1.21-.05-1.82S180.2,20.24,180.13,19.7Z"/><path class="cls-1" d="M183.85,16.79c-1.23,0-1.4,2.77-1.4,6.18s.17,6.19,1.4,6.19,2.24-2.77,2.24-6.19S185.09,16.79,183.85,16.79Z"/><path class="cls-2" d="M97.21,107.47l-3,7.89h-.9l-3-7.89h.86l2.58,7,2.61-7Z"/><path class="cls-2" d="M102.21,114.92a3.7,3.7,0,0,1-1.4-1.43,4.52,4.52,0,0,1,0-4.17,3.7,3.7,0,0,1,1.4-1.43,4.16,4.16,0,0,1,4,0,3.7,3.7,0,0,1,1.4,1.43,4.52,4.52,0,0,1,0,4.17,3.7,3.7,0,0,1-1.4,1.43,4.16,4.16,0,0,1-4,0Zm3.57-.58a2.85,2.85,0,0,0,1.11-1.17,3.69,3.69,0,0,0,.4-1.76,3.73,3.73,0,0,0-.4-1.77,2.89,2.89,0,0,0-1.11-1.16,3.32,3.32,0,0,0-3.16,0,3,3,0,0,0-1.11,1.16,3.73,3.73,0,0,0-.4,1.77,3.69,3.69,0,0,0,.4,1.76,2.92,2.92,0,0,0,1.11,1.17,3.25,3.25,0,0,0,3.16,0Z"/><path class="cls-2" d="M112.6,107.47v7.89h-.79v-7.89Z"/><path class="cls-2" d="M116.8,109.32a3.65,3.65,0,0,1,1.38-1.43,3.88,3.88,0,0,1,2-.51,4,4,0,0,1,2.26.62,3.53,3.53,0,0,1,1.37,1.77h-.92a2.67,2.67,0,0,0-1-1.25,3.28,3.28,0,0,0-3.23,0,2.75,2.75,0,0,0-1.09,1.17,3.73,3.73,0,0,0-.4,1.77,3.69,3.69,0,0,0,.4,1.76,2.78,2.78,0,0,0,1.09,1.16,3.25,3.25,0,0,0,3.23,0,2.69,2.69,0,0,0,1-1.24h.92a3.44,3.44,0,0,1-1.37,1.75,4,4,0,0,1-2.26.62,3.88,3.88,0,0,1-2-.51,3.65,3.65,0,0,1-1.38-1.43,4.18,4.18,0,0,1-.51-2.07A4.26,4.26,0,0,1,116.8,109.32Z"/><path class="cls-2" d="M128.4,108.11v3h3v.65h-3v3h3.33v.66h-4.12v-7.91h4.12v.66Z"/><path class="cls-2" d="M142.45,114.92a3.7,3.7,0,0,1-1.4-1.43,4.44,4.44,0,0,1,0-4.17,3.7,3.7,0,0,1,1.4-1.43,4.16,4.16,0,0,1,4,0,3.61,3.61,0,0,1,1.39,1.43,4.52,4.52,0,0,1,0,4.17,3.61,3.61,0,0,1-1.39,1.43,4.16,4.16,0,0,1-4,0Zm3.57-.58a2.89,2.89,0,0,0,1.1-1.17,3.58,3.58,0,0,0,.41-1.76,3.62,3.62,0,0,0-.41-1.77,2.93,2.93,0,0,0-1.1-1.16,3.32,3.32,0,0,0-3.16,0,2.89,2.89,0,0,0-1.11,1.16,3.73,3.73,0,0,0-.4,1.77,3.69,3.69,0,0,0,.4,1.76,2.85,2.85,0,0,0,1.11,1.17,3.25,3.25,0,0,0,3.16,0Z"/><path class="cls-2" d="M158.3,107.47l-3,7.89h-.91l-3-7.89h.86l2.59,7,2.6-7Z"/><path class="cls-2" d="M162.53,108.11v3h3v.65h-3v3h3.33v.66h-4.12v-7.91h4.12v.66Z"/><path class="cls-2" d="M173.87,115.36l-2-3.3h-1.45v3.3h-.8v-7.89h2.38a2.86,2.86,0,0,1,2,.63,2.16,2.16,0,0,1,.68,1.66,2.22,2.22,0,0,1-.49,1.46,2.36,2.36,0,0,1-1.45.78l2,3.36Zm-3.4-3.94h1.59a1.94,1.94,0,0,0,1.39-.45,1.64,1.64,0,0,0,.47-1.21,1.56,1.56,0,0,0-.45-1.2,2,2,0,0,0-1.42-.43h-1.58Z"/><path class="cls-2" d="M0,74.49V92A2.93,2.93,0,0,0,2.93,95h2.6v-8.9h9.28V81.72H5.53V77.09H16.08V72.83H1.66A1.66,1.66,0,0,0,0,74.49Z"/><path class="cls-2" d="M24,72.83,15.54,95h3.75a3,3,0,0,0,2.76-1.89l1.22-3.13h7.39l2,5h5.77L30,72.83Zm0,13L27,78.15l2.95,7.7Z"/><path class="cls-2" d="M57.87,83.65a4.82,4.82,0,0,0,1.77-1.84,5.87,5.87,0,0,0,.67-2.94,5.76,5.76,0,0,0-1.7-4.46,7.11,7.11,0,0,0-5-1.58H41.9V92.77A2.18,2.18,0,0,0,44.08,95h9.84a7.67,7.67,0,0,0,5.33-1.67,6.15,6.15,0,0,0,1.85-4.82,5,5,0,0,0-.86-3.2A5.19,5.19,0,0,0,57.87,83.65ZM47.43,76.81h4.23a3.38,3.38,0,0,1,2.37.64,2.56,2.56,0,0,1,.65,1.9A2.47,2.47,0,0,1,54,81.17a2.87,2.87,0,0,1-2.1.66h-4.5Zm7.3,13.57a3.45,3.45,0,0,1-2.25.62h-5V85.64h4.84a3.73,3.73,0,0,1,2.48.64,2.4,2.4,0,0,1,.72,1.9A2.75,2.75,0,0,1,54.73,90.38Z"/><path class="cls-2" d="M68.9,72.83H65.64V95h5.53V75.1A2.27,2.27,0,0,0,68.9,72.83Z"/><path class="cls-2" d="M98.08,81.58H89.43V74.36a1.54,1.54,0,0,0-1.54-1.54h-4V92.44A2.5,2.5,0,0,0,86.4,95h3V86.19h8.65V95h3.33a2.2,2.2,0,0,0,2.2-2.2V72.82H98.08Z"/><path class="cls-2" d="M108.84,74.39v19A1.57,1.57,0,0,0,110.41,95h14.74V90.69H114.37V86.05h9.51V81.72h-9.51V77.08h10.78V72.82H110.41A1.57,1.57,0,0,0,108.84,74.39Z"/><path class="cls-2" d="M147.37,72.82h-3.7V86.05l-9.41-13.23h-3.08a1.66,1.66,0,0,0-1.66,1.67V93.08A1.87,1.87,0,0,0,131.38,95h3.67V81.76L144.46,95h3.23a1.54,1.54,0,0,0,1.54-1.55V74.69A1.87,1.87,0,0,0,147.37,72.82Z"/><path class="cls-2" d="M172,84.33a6.79,6.79,0,0,0,1.14-3.91,7.92,7.92,0,0,0-1.86-5.53q-1.86-2.07-5.77-2.07H154.46V95H159a1,1,0,0,0,1-1v-6h2.54a2.45,2.45,0,0,1,1.38.33,2.22,2.22,0,0,1,.78,1L167.17,95h5.77l-2.61-6a8.56,8.56,0,0,0-.64-1.29,3.2,3.2,0,0,0-.77-.84A6.73,6.73,0,0,0,172,84.33Zm-5.41-1.46a3.67,3.67,0,0,1-2.52.81H160v-6.6h4.33c2.13,0,3.19,1.12,3.19,3.34A3.08,3.08,0,0,1,166.6,82.87Z"/><path class="cls-2" d="M180.56,72.82h-2.88V95h5.53V75.48A2.66,2.66,0,0,0,180.56,72.82Z"/><path class="cls-2" d="M198.77,72.48q-5.39,0-8.21,2.68T187.74,84q0,5.19,2.24,7.92a9.47,9.47,0,0,0,6.52,3.24v1.44a3.81,3.81,0,0,0,3.81,3.8h1.14l0-5.3a9.24,9.24,0,0,0,6.23-3.3q2.15-2.72,2.15-7.8,0-6.15-2.82-8.83T198.77,72.48ZM202.84,89a3.85,3.85,0,0,1-1.62,1.17V86.33H196.5v3.9A4,4,0,0,1,194.67,89a7.92,7.92,0,0,1-1.29-5q0-3.7,1.29-5.24a5.08,5.08,0,0,1,4.1-1.53,5,5,0,0,1,4.07,1.53q1.29,1.53,1.29,5.24A7.92,7.92,0,0,1,202.84,89Z"/><path class="cls-2" d="M232.83,72.82H229V86a4.5,4.5,0,0,1-1.2,3.43,5.79,5.79,0,0,1-6.87,0A4.46,4.46,0,0,1,219.69,86V74.5A1.67,1.67,0,0,0,218,72.82h-3.86V86.53a8.78,8.78,0,0,0,1.25,4.81,7.83,7.83,0,0,0,3.54,3,15.11,15.11,0,0,0,10.76,0,7.75,7.75,0,0,0,3.53-3,8.7,8.7,0,0,0,1.26-4.81v-12A1.68,1.68,0,0,0,232.83,72.82Z"/><path class="cls-2" d="M239.55,74V93.76A1.19,1.19,0,0,0,240.74,95h15.13V90.69H245.08V86.05h9.51V81.72h-9.51V77.08h10.79V72.82H240.74A1.19,1.19,0,0,0,239.55,74Z"/><path class="cls-2" d="M266.89,90.69l8.51-12.24a9.84,9.84,0,0,0,1.77-5.63H261.7a1.64,1.64,0,0,0-1.64,1.65v2.75h9.86l-8.77,12.6A8.94,8.94,0,0,0,259.54,95h16.19a1.64,1.64,0,0,0,1.64-1.64V90.69Z"/></g></g></svg>